<?xml version="1.0" encoding="UTF-8" standalone="no"?>
<!DOCTYPE svg PUBLIC "-//W3C//DTD SVG 1.1//EN"
 "http://www.w3.org/Graphics/SVG/1.1/DTD/svg11.dtd">
<!-- Generated by graphviz version 3.0.0 (20220226.1711)
 -->
<!-- Pages: 1 -->
<svg width="753pt" height="359pt"
 viewBox="0.00 0.00 752.86 359.00" xmlns="http://www.w3.org/2000/svg" xmlns:xlink="http://www.w3.org/1999/xlink">
<g id="graph0" class="graph" transform="scale(1 1) rotate(0) translate(4 355)">
<polygon fill="#333333" stroke="transparent" points="-4,4 -4,-355 748.86,-355 748.86,4 -4,4"/>
<text text-anchor="middle" x="372.43" y="-10" font-family="Times,serif" font-size="20.00" fill="red">Mapping</text>
<!-- R4 -->
<g id="node1" class="node">
<title>R4</title>
<polygon fill="#006699" stroke="#006699" points="83.86,-227 7.86,-227 7.86,-154 83.86,-154 83.86,-227"/>
<text text-anchor="middle" x="45.86" y="-186.8" font-family="Helvetica,sans-Serif" font-size="14.00" fill="white">R4</text>
</g>
<!-- R5 -->
<g id="node2" class="node">
<title>R5</title>
<polygon fill="#006699" stroke="#006699" points="206.86,-227 130.86,-227 130.86,-154 206.86,-154 206.86,-227"/>
<text text-anchor="middle" x="168.86" y="-186.8" font-family="Helvetica,sans-Serif" font-size="14.00" fill="white">R5</text>
</g>
<!-- R6 -->
<g id="node3" class="node">
<title>R6</title>
<polygon fill="#006699" stroke="#006699" points="452.86,-351 376.86,-351 376.86,-278 452.86,-278 452.86,-351"/>
<text text-anchor="middle" x="414.86" y="-310.8" font-family="Helvetica,sans-Serif" font-size="14.00" fill="white">R6</text>
</g>
<!-- R3 -->
<g id="node4" class="node">
<title>R3</title>
<polygon fill="#006699" stroke="#006699" points="206.86,-103 130.86,-103 130.86,-30 206.86,-30 206.86,-103"/>
<text text-anchor="middle" x="168.86" y="-62.8" font-family="Helvetica,sans-Serif" font-size="14.00" fill="white">R3</text>
</g>
<!-- R3&#45;&#45;R4 -->
<g id="edge6" class="edge">
<title>R3&#45;&#45;R4</title>
<path fill="none" stroke="green" stroke-dasharray="5,2" d="M130.7,-78.55C108.49,-86.84 81.65,-100.37 64.86,-121 57.3,-130.28 52.75,-142.37 50,-153.8"/>
<text text-anchor="middle" x="114.86" y="-124.8" font-family="Courier,monospace" font-size="14.00" fill="white"> &#160;&#160;&#160;&#160;&#160;&#160;&#160;&#160;&#160;&#160;&#160;</text>
<text text-anchor="middle" x="25" y="-142.6" font-family="Courier,monospace" font-size="14.00" fill="white">Eth0/0</text>
<text text-anchor="middle" x="105.7" y="-67.35" font-family="Courier,monospace" font-size="14.00" fill="white">Eth0/1</text>
</g>
<!-- R3&#45;&#45;R5 -->
<g id="edge7" class="edge">
<title>R3&#45;&#45;R5</title>
<path fill="none" stroke="green" stroke-dasharray="5,2" d="M168.86,-103.12C168.86,-119.01 168.86,-137.7 168.86,-153.63"/>
<text text-anchor="middle" x="218.86" y="-124.8" font-family="Courier,monospace" font-size="14.00" fill="white"> &#160;&#160;&#160;&#160;&#160;&#160;&#160;&#160;&#160;&#160;&#160;</text>
<text text-anchor="middle" x="143.86" y="-142.43" font-family="Courier,monospace" font-size="14.00" fill="white">Eth0/0</text>
<text text-anchor="middle" x="143.86" y="-106.92" font-family="Courier,monospace" font-size="14.00" fill="white">Eth0/2</text>
</g>
<!-- SW1 -->
<g id="node8" class="node">
<title>SW1</title>
<polygon fill="#006699" stroke="#006699" points="459.36,-227 370.36,-227 370.36,-154 459.36,-154 459.36,-227"/>
<text text-anchor="middle" x="414.86" y="-186.8" font-family="Helvetica,sans-Serif" font-size="14.00" fill="white">SW1</text>
</g>
<!-- R3&#45;&#45;SW1 -->
<g id="edge5" class="edge">
<title>R3&#45;&#45;SW1</title>
<path fill="none" stroke="green" stroke-dasharray="5,2" d="M207.03,-86.43C251.16,-108.31 323.69,-144.29 370.35,-167.43"/>
<text text-anchor="middle" x="356.86" y="-124.8" font-family="Courier,monospace" font-size="14.00" fill="white"> &#160;&#160;&#160;&#160;&#160;&#160;&#160;&#160;&#160;&#160;&#160;</text>
<text text-anchor="middle" x="345.35" y="-156.23" font-family="Courier,monospace" font-size="14.00" fill="white">Eth0/3</text>
<text text-anchor="middle" x="232.03" y="-75.23" font-family="Courier,monospace" font-size="14.00" fill="white">Eth0/0</text>
</g>
<!-- R2 -->
<g id="node5" class="node">
<title>R2</title>
<polygon fill="#006699" stroke="#006699" points="636.86,-103 560.86,-103 560.86,-30 636.86,-30 636.86,-103"/>
<text text-anchor="middle" x="598.86" y="-62.8" font-family="Helvetica,sans-Serif" font-size="14.00" fill="white">R2</text>
</g>
<!-- SW2 -->
<g id="node6" class="node">
<title>SW2</title>
<polygon fill="#006699" stroke="#006699" points="705.36,-227 616.36,-227 616.36,-154 705.36,-154 705.36,-227"/>
<text text-anchor="middle" x="660.86" y="-186.8" font-family="Helvetica,sans-Serif" font-size="14.00" fill="white">SW2</text>
</g>
<!-- R2&#45;&#45;SW2 -->
<g id="edge4" class="edge">
<title>R2&#45;&#45;SW2</title>
<path fill="none" stroke="green" stroke-dasharray="5,2" d="M628.1,-103.28C632.04,-109.01 635.78,-115.02 638.86,-121 644.13,-131.21 648.45,-142.93 651.83,-153.75"/>
<text text-anchor="middle" x="694.86" y="-124.8" font-family="Courier,monospace" font-size="14.00" fill="white"> &#160;&#160;&#160;&#160;&#160;&#160;&#160;&#160;&#160;&#160;&#160;</text>
<text text-anchor="middle" x="622.83" y="-142.55" font-family="Courier,monospace" font-size="14.00" fill="white">Eth0/11</text>
<text text-anchor="middle" x="603.1" y="-107.08" font-family="Courier,monospace" font-size="14.00" fill="white">Eth0/1</text>
</g>
<!-- R2&#45;&#45;SW1 -->
<g id="edge3" class="edge">
<title>R2&#45;&#45;SW1</title>
<path fill="none" stroke="green" stroke-dasharray="5,2" d="M560.63,-99.64C541.26,-115.82 520.79,-132.71 515.86,-136 498.12,-147.84 477.47,-159.17 459.48,-168.33"/>
<text text-anchor="middle" x="583.86" y="-124.8" font-family="Courier,monospace" font-size="14.00" fill="white"> &#160;&#160;&#160;&#160;&#160;&#160;&#160;&#160;&#160;&#160;&#160;</text>
<text text-anchor="middle" x="484.48" y="-157.13" font-family="Courier,monospace" font-size="14.00" fill="white">Eth0/2</text>
<text text-anchor="middle" x="535.63" y="-88.44" font-family="Courier,monospace" font-size="14.00" fill="white">Eth0/0</text>
</g>
<!-- R1 -->
<g id="node7" class="node">
<title>R1</title>
<polygon fill="#006699" stroke="#006699" points="452.86,-103 376.86,-103 376.86,-30 452.86,-30 452.86,-103"/>
<text text-anchor="middle" x="414.86" y="-62.8" font-family="Helvetica,sans-Serif" font-size="14.00" fill="white">R1</text>
</g>
<!-- R1&#45;&#45;SW1 -->
<g id="edge2" class="edge">
<title>R1&#45;&#45;SW1</title>
<path fill="none" stroke="green" stroke-dasharray="5,2" d="M414.86,-103.12C414.86,-119.01 414.86,-137.7 414.86,-153.63"/>
<text text-anchor="middle" x="464.86" y="-124.8" font-family="Courier,monospace" font-size="14.00" fill="white"> &#160;&#160;&#160;&#160;&#160;&#160;&#160;&#160;&#160;&#160;&#160;</text>
<text text-anchor="middle" x="439.86" y="-142.43" font-family="Courier,monospace" font-size="14.00" fill="white">Eth0/1</text>
<text text-anchor="middle" x="389.86" y="-106.92" font-family="Courier,monospace" font-size="14.00" fill="white">Eth0/0</text>
</g>
<!-- SW1&#45;&#45;R6 -->
<g id="edge1" class="edge">
<title>SW1&#45;&#45;R6</title>
<path fill="none" stroke="green" stroke-dasharray="5,2" d="M414.86,-227.12C414.86,-243.01 414.86,-261.7 414.86,-277.63"/>
<text text-anchor="middle" x="464.86" y="-248.8" font-family="Courier,monospace" font-size="14.00" fill="white"> &#160;&#160;&#160;&#160;&#160;&#160;&#160;&#160;&#160;&#160;&#160;</text>
<text text-anchor="middle" x="389.86" y="-266.43" font-family="Courier,monospace" font-size="14.00" fill="white">Eth0/1</text>
<text text-anchor="middle" x="389.86" y="-230.92" font-family="Courier,monospace" font-size="14.00" fill="white">Eth0/5</text>
</g>
</g>
</svg>
